<svg width="148" height="25" viewBox="0 0 148 25" fill="none" xmlns="http://www.w3.org/2000/svg">
<path d="M30.5446 2.93553C29.4204 3.43368 28.2141 3.77152 26.9467 3.92234C28.2408 3.1474 29.2314 1.91822 29.7009 0.45807C28.487 1.17572 27.1471 1.69682 25.7194 1.97931C24.5761 0.759673 22.9499 0 21.1462 0C17.6857 0 14.88 2.80577 14.88 6.2643C14.88 6.75481 14.9353 7.23389 15.0422 7.69201C9.83537 7.43048 5.21829 4.93586 2.12814 1.14517C1.58797 2.069 1.28068 3.14545 1.28068 4.29452C1.28068 6.46853 2.38772 8.38675 4.06738 9.50902C3.04049 9.47468 2.07469 9.19219 1.22917 8.72264V8.8009C1.22917 11.8357 3.38981 14.3685 6.25471 14.945C5.72981 15.0862 5.17632 15.1645 4.60371 15.1645C4.19909 15.1645 3.8078 15.1244 3.42414 15.048C4.22195 17.5389 6.5353 19.3502 9.27618 19.3998C7.13272 21.0795 4.43002 22.0777 1.49449 22.0777C0.988708 22.0777 0.490511 22.0472 0 21.9918C2.77332 23.7727 6.0658 24.811 9.60449 24.811C21.131 24.811 27.4316 15.2637 27.4316 6.98389L27.4106 6.17271C28.6416 5.29466 29.7067 4.19145 30.5446 2.93553Z" fill="white"/>
<path fill-rule="evenodd" clip-rule="evenodd" d="M83.9028 0H72.8235C69.061 0 66 3.06117 66 6.82364V17.9029C66 21.6655 69.061 24.7266 72.8235 24.7266H83.9028C87.6655 24.7266 90.7266 21.6654 90.7266 17.9029V6.82364C90.7267 3.06117 87.6655 0 83.9028 0ZM78.3634 5.9912C74.8501 5.9912 71.992 8.84936 71.992 12.3626C71.992 15.8757 74.8501 18.7337 78.3634 18.7337C81.8766 18.7337 84.7348 15.8757 84.7348 12.3626C84.7348 8.84936 81.8766 5.9912 78.3634 5.9912ZM78.3634 16.5397C76.06 16.5397 74.1858 14.6659 74.1858 12.3625C74.1858 10.0589 76.0598 8.18491 78.3634 8.18491C80.6669 8.18491 82.5409 10.0589 82.5409 12.3625C82.5409 14.6659 80.6668 16.5397 78.3634 16.5397ZM83.8656 4.60186C84.1641 4.30204 84.5793 4.13091 85.002 4.13091C85.4262 4.13091 85.8415 4.30204 86.1399 4.60186C86.4397 4.90023 86.6109 5.3156 86.6109 5.73975C86.6109 6.16243 86.4397 6.5778 86.1399 6.87763C85.8401 7.17599 85.4262 7.34858 85.002 7.34858C84.5793 7.34858 84.164 7.17599 83.8656 6.87763C83.5658 6.5778 83.3932 6.16258 83.3932 5.73975C83.3932 5.3156 83.5656 4.90023 83.8656 4.60186Z" fill="white"/>
<path d="M147.201 0.00487937L144.16 0C140.744 0 138.536 2.26525 138.536 5.77132V8.43228H135.478C135.214 8.43228 135 8.64648 135 8.9107V12.7661C135 13.0303 135.214 13.2443 135.478 13.2443H138.536V22.9728C138.536 23.237 138.75 23.451 139.014 23.451H143.003C143.268 23.451 143.482 23.2368 143.482 22.9728V13.2443H147.057C147.321 13.2443 147.535 13.0303 147.535 12.7661L147.536 8.9107C147.536 8.78384 147.486 8.66234 147.396 8.57256C147.307 8.48278 147.185 8.43228 147.058 8.43228H143.482V6.17655C143.482 5.09235 143.74 4.54196 145.152 4.54196L147.201 4.54123C147.465 4.54123 147.679 4.32702 147.679 4.06305V0.483057C147.679 0.219328 147.465 0.0053673 147.201 0.00487937Z" fill="white"/>
</svg>
